<svg width="45" height="46" viewBox="0 0 45 46" fill="none" xmlns="http://www.w3.org/2000/svg">
<path d="M39.7731 35.8808C40.0359 31.6932 40.1741 27.3536 40.1741 22.9069C40.1741 21.106 40.1515 19.3227 40.107 17.5598C40.0759 16.3214 39.674 15.1179 38.9411 14.1193C36.147 10.313 33.9213 7.94662 30.2529 5.11552C29.2448 4.3375 28.0078 3.91538 26.7347 3.88755C25.4582 3.85966 24.1251 3.84549 22.7011 3.84549C18.3901 3.84549 14.9127 3.97533 11.3141 4.22275C8.25267 4.43325 5.82128 6.87035 5.62905 9.93295C5.36622 14.1207 5.22806 18.4603 5.22806 22.9069C5.22806 27.3536 5.36622 31.6932 5.62905 35.8808C5.82128 38.9437 8.25267 41.3807 11.3141 41.591C14.9127 41.8385 18.3901 41.9684 22.7011 41.9684C27.012 41.9684 30.4894 41.8385 34.088 41.591C37.1493 41.3807 39.5809 38.9437 39.7731 35.8808Z" fill="#94CEC4" stroke="#020202" stroke-width="3.17691"/>
<path d="M16.3472 26.0839L20.9682 30.8492C23.1426 24.6029 24.9535 21.862 29.0549 18.1416" stroke="#020202" stroke-width="3.17691" stroke-linecap="round" stroke-linejoin="round"/>
</svg>
