<svg width="45" height="46" viewBox="0 0 45 46" fill="none" xmlns="http://www.w3.org/2000/svg">
<g clip-path="url(#clip0_1844_17803)">
<path d="M9.20935 34.4101C6.37065 34.1461 3.98486 32.0696 3.59177 29.2459C3.14197 26.0148 2.89197 22.693 2.89197 19.2736C2.89197 15.7334 3.14206 12.25 3.62364 8.91491C4.00452 6.27721 6.15751 4.28625 8.80801 4.00787C13.2856 3.53757 17.9637 3.28403 22.7476 3.28403C27.5168 3.28403 32.1122 3.55283 36.5939 4.01623C39.2895 4.29495 41.4787 6.32728 41.8615 9.01012C42.3336 12.3194 42.6033 15.764 42.6033 19.2736C42.6033 22.7553 42.3085 26.1403 41.8444 29.4268C41.4584 32.1609 39.2342 34.2474 36.4871 34.5267C32.0488 34.9775 27.4732 35.2631 22.7476 35.2631C22.6345 35.2631 22.5215 35.2628 22.4085 35.2625C19.0763 39.0954 16.5215 40.9898 12.0561 42.9954V34.6738C11.3321 34.6083 10.6123 34.541 9.89683 34.4743C9.6672 34.453 9.43805 34.4314 9.20935 34.4101Z" fill="#94CEC4" stroke="#020202" stroke-width="3.17691" stroke-linecap="round" stroke-linejoin="round"/>
<path d="M22.7498 20.6879C22.7498 19.6199 23.6185 18.9648 25.151 17.9408C26.5726 16.9909 27.3224 15.7588 26.9888 14.082C26.6553 12.4053 25.2698 11.0198 23.593 10.6862C20.9609 10.1627 18.4279 12.2415 18.4279 14.9251" stroke="#020202" stroke-width="3.17691" stroke-linecap="round" stroke-linejoin="round"/>
<path d="M22.7477 28.0835V27.2892" stroke="#020202" stroke-width="3.17691" stroke-linecap="round" stroke-linejoin="round"/>
</g>
<defs>
<clipPath id="clip0_1844_17803">
<rect width="44.4767" height="44.4767" fill="white" transform="translate(0.509247 0.901306)"/>
</clipPath>
</defs>
</svg>
