<svg width="11" height="21" viewBox="0 0 11 21" fill="none" xmlns="http://www.w3.org/2000/svg">
<mask id="path-1-outside-1_3014_106" maskUnits="userSpaceOnUse" x="0" y="0" width="11" height="21" fill="black">
<rect fill="white" width="11" height="21"/>
<path d="M2.11328 17.9453C2.41797 17.8359 2.76172 17.7578 3.14453 17.7109C3.53516 17.6562 3.89453 17.6094 4.22266 17.5703V3.4375L2.30078 3.07422C2.28516 3.03516 2.27344 2.96484 2.26562 2.86328C2.26562 2.75391 2.26562 2.66797 2.26562 2.60547C2.26562 2.49609 2.28125 2.38672 2.3125 2.27734C2.34375 2.16797 2.375 2.08594 2.40625 2.03125H8.23047L8.34766 3.01562C8.06641 3.11719 7.73828 3.20312 7.36328 3.27344C6.98828 3.34375 6.64062 3.39844 6.32031 3.4375V17.5703L8.5 17.9688C8.51562 18.0078 8.52344 18.0664 8.52344 18.1445C8.53125 18.2148 8.53516 18.2773 8.53516 18.332C8.53516 18.4414 8.51953 18.5664 8.48828 18.707C8.45703 18.8477 8.42578 18.9453 8.39453 19H2.21875L2.11328 17.9453Z"/>
</mask>
<path d="M2.11328 17.9453C2.41797 17.8359 2.76172 17.7578 3.14453 17.7109C3.53516 17.6562 3.89453 17.6094 4.22266 17.5703V3.4375L2.30078 3.07422C2.28516 3.03516 2.27344 2.96484 2.26562 2.86328C2.26562 2.75391 2.26562 2.66797 2.26562 2.60547C2.26562 2.49609 2.28125 2.38672 2.3125 2.27734C2.34375 2.16797 2.375 2.08594 2.40625 2.03125H8.23047L8.34766 3.01562C8.06641 3.11719 7.73828 3.20312 7.36328 3.27344C6.98828 3.34375 6.64062 3.39844 6.32031 3.4375V17.5703L8.5 17.9688C8.51562 18.0078 8.52344 18.0664 8.52344 18.1445C8.53125 18.2148 8.53516 18.2773 8.53516 18.332C8.53516 18.4414 8.51953 18.5664 8.48828 18.707C8.45703 18.8477 8.42578 18.9453 8.39453 19H2.21875L2.11328 17.9453Z" fill="#F9CAD0"/>
<path d="M2.11328 17.9453L1.60648 16.5335C0.958658 16.7661 0.552237 17.4097 0.620725 18.0946L2.11328 17.9453ZM3.14453 17.7109L3.32684 19.1998C3.33541 19.1988 3.34396 19.1976 3.3525 19.1965L3.14453 17.7109ZM4.22266 17.5703L4.39998 19.0598C5.15449 18.97 5.72266 18.3302 5.72266 17.5703H4.22266ZM4.22266 3.4375H5.72266C5.72266 2.71651 5.2097 2.09751 4.50126 1.9636L4.22266 3.4375ZM2.30078 3.07422L0.908066 3.6313C1.09842 4.10718 1.51856 4.45292 2.02218 4.54812L2.30078 3.07422ZM2.26562 2.86328H0.765625C0.765625 2.90167 0.767099 2.94005 0.770043 2.97833L2.26562 2.86328ZM2.40625 2.03125V0.53125C1.86796 0.53125 1.37095 0.819679 1.10389 1.28704L2.40625 2.03125ZM8.23047 2.03125L9.71995 1.85393C9.63013 1.09942 8.99031 0.53125 8.23047 0.53125V2.03125ZM8.34766 3.01562L8.85712 4.42646C9.51343 4.18946 9.91963 3.5312 9.83714 2.83831L8.34766 3.01562ZM6.32031 3.4375L6.13873 1.94853C5.38611 2.04031 4.82031 2.6793 4.82031 3.4375H6.32031ZM6.32031 17.5703H4.82031C4.82031 18.2947 5.338 18.9156 6.05059 19.0459L6.32031 17.5703ZM8.5 17.9688L9.89272 17.4117C9.70117 16.9328 9.27706 16.5859 8.76972 16.4932L8.5 17.9688ZM8.52344 18.1445H7.02344C7.02344 18.1999 7.0265 18.2552 7.03261 18.3102L8.52344 18.1445ZM8.39453 19V20.5C8.93282 20.5 9.42983 20.2116 9.6969 19.7442L8.39453 19ZM2.21875 19L0.726194 19.1493C0.802874 19.9161 1.44812 20.5 2.21875 20.5V19ZM2.11328 17.9453L2.62008 19.3571C2.80211 19.2918 3.03436 19.2356 3.32684 19.1998L3.14453 17.7109L2.96222 16.2221C2.48908 16.28 2.03383 16.3801 1.60648 16.5335L2.11328 17.9453ZM3.14453 17.7109L3.3525 19.1965C3.73481 19.1429 4.08381 19.0974 4.39998 19.0598L4.22266 17.5703L4.04534 16.0808C3.70525 16.1213 3.33551 16.1696 2.93656 16.2254L3.14453 17.7109ZM4.22266 17.5703H5.72266V3.4375H4.22266H2.72266V17.5703H4.22266ZM4.22266 3.4375L4.50126 1.9636L2.57938 1.60032L2.30078 3.07422L2.02218 4.54812L3.94405 4.9114L4.22266 3.4375ZM2.30078 3.07422L3.6935 2.51713C3.72157 2.58732 3.73713 2.64373 3.74501 2.67526C3.75341 2.70885 3.75786 2.73354 3.75986 2.74559C3.76361 2.76809 3.76303 2.77192 3.76121 2.74824L2.26562 2.86328L0.770043 2.97833C0.777637 3.07705 0.798146 3.35651 0.908066 3.6313L2.30078 3.07422ZM2.26562 2.86328H3.76562C3.76562 2.86307 3.76562 2.86285 3.76562 2.86264C3.76562 2.86243 3.76562 2.86221 3.76562 2.862C3.76562 2.86179 3.76562 2.86157 3.76562 2.86136C3.76562 2.86115 3.76562 2.86093 3.76562 2.86072C3.76562 2.86051 3.76562 2.8603 3.76562 2.86008C3.76562 2.85987 3.76562 2.85966 3.76562 2.85945C3.76562 2.85923 3.76562 2.85902 3.76562 2.85881C3.76562 2.8586 3.76562 2.85838 3.76562 2.85817C3.76562 2.85796 3.76562 2.85775 3.76562 2.85754C3.76562 2.85732 3.76562 2.85711 3.76562 2.8569C3.76562 2.85669 3.76562 2.85648 3.76562 2.85626C3.76562 2.85605 3.76562 2.85584 3.76562 2.85563C3.76562 2.85542 3.76562 2.85521 3.76562 2.855C3.76562 2.85478 3.76562 2.85457 3.76562 2.85436C3.76562 2.85415 3.76562 2.85394 3.76562 2.85373C3.76562 2.85352 3.76562 2.85331 3.76562 2.8531C3.76562 2.85289 3.76562 2.85267 3.76562 2.85246C3.76562 2.85225 3.76562 2.85204 3.76562 2.85183C3.76562 2.85162 3.76562 2.85141 3.76562 2.8512C3.76562 2.85099 3.76562 2.85078 3.76562 2.85057C3.76562 2.85036 3.76562 2.85015 3.76562 2.84994C3.76562 2.84973 3.76562 2.84952 3.76562 2.84931C3.76562 2.8491 3.76562 2.84889 3.76562 2.84868C3.76562 2.84847 3.76562 2.84826 3.76562 2.84805C3.76562 2.84785 3.76562 2.84764 3.76562 2.84743C3.76562 2.84722 3.76562 2.84701 3.76562 2.8468C3.76562 2.84659 3.76562 2.84638 3.76562 2.84617C3.76562 2.84596 3.76562 2.84576 3.76562 2.84555C3.76562 2.84534 3.76562 2.84513 3.76562 2.84492C3.76562 2.84471 3.76562 2.8445 3.76562 2.8443C3.76562 2.84409 3.76562 2.84388 3.76562 2.84367C3.76562 2.84346 3.76562 2.84326 3.76562 2.84305C3.76562 2.84284 3.76562 2.84263 3.76562 2.84242C3.76562 2.84222 3.76562 2.84201 3.76562 2.8418C3.76562 2.84159 3.76562 2.84139 3.76562 2.84118C3.76562 2.84097 3.76562 2.84076 3.76562 2.84056C3.76562 2.84035 3.76562 2.84014 3.76562 2.83994C3.76562 2.83973 3.76562 2.83952 3.76562 2.83932C3.76562 2.83911 3.76562 2.8389 3.76562 2.8387C3.76562 2.83849 3.76562 2.83828 3.76562 2.83808C3.76562 2.83787 3.76562 2.83766 3.76562 2.83746C3.76562 2.83725 3.76562 2.83704 3.76562 2.83684C3.76562 2.83663 3.76562 2.83643 3.76562 2.83622C3.76562 2.83601 3.76562 2.83581 3.76562 2.8356C3.76562 2.8354 3.76562 2.83519 3.76562 2.83499C3.76562 2.83478 3.76562 2.83457 3.76562 2.83437C3.76562 2.83416 3.76562 2.83396 3.76562 2.83375C3.76562 2.83355 3.76562 2.83334 3.76562 2.83314C3.76562 2.83293 3.76562 2.83273 3.76562 2.83252C3.76562 2.83232 3.76562 2.83211 3.76562 2.83191C3.76562 2.8317 3.76562 2.8315 3.76562 2.83129C3.76562 2.83109 3.76562 2.83089 3.76562 2.83068C3.76562 2.83048 3.76562 2.83027 3.76562 2.83007C3.76562 2.82986 3.76562 2.82966 3.76562 2.82946C3.76562 2.82925 3.76562 2.82905 3.76562 2.82884C3.76562 2.82864 3.76562 2.82844 3.76562 2.82823C3.76562 2.82803 3.76562 2.82783 3.76562 2.82762C3.76562 2.82742 3.76562 2.82722 3.76562 2.82701C3.76562 2.82681 3.76562 2.82661 3.76562 2.8264C3.76562 2.8262 3.76562 2.826 3.76562 2.82579C3.76562 2.82559 3.76562 2.82539 3.76562 2.82519C3.76562 2.82498 3.76562 2.82478 3.76562 2.82458C3.76562 2.82438 3.76562 2.82417 3.76562 2.82397C3.76562 2.82377 3.76562 2.82357 3.76562 2.82336C3.76562 2.82316 3.76562 2.82296 3.76562 2.82276C3.76562 2.82256 3.76562 2.82235 3.76562 2.82215C3.76562 2.82195 3.76562 2.82175 3.76562 2.82155C3.76562 2.82135 3.76562 2.82114 3.76562 2.82094C3.76562 2.82074 3.76562 2.82054 3.76562 2.82034C3.76562 2.82014 3.76562 2.81994 3.76562 2.81973C3.76562 2.81953 3.76562 2.81933 3.76562 2.81913C3.76562 2.81893 3.76562 2.81873 3.76562 2.81853C3.76562 2.81833 3.76562 2.81813 3.76562 2.81793C3.76562 2.81773 3.76562 2.81753 3.76562 2.81733C3.76562 2.81713 3.76562 2.81693 3.76562 2.81672C3.76562 2.81652 3.76562 2.81632 3.76562 2.81612C3.76562 2.81592 3.76562 2.81572 3.76562 2.81552C3.76562 2.81532 3.76562 2.81512 3.76562 2.81493C3.76562 2.81473 3.76562 2.81453 3.76562 2.81433C3.76562 2.81413 3.76562 2.81393 3.76562 2.81373C3.76562 2.81353 3.76562 2.81333 3.76562 2.81313C3.76562 2.81293 3.76562 2.81273 3.76562 2.81253C3.76562 2.81233 3.76562 2.81214 3.76562 2.81194C3.76562 2.81174 3.76562 2.81154 3.76562 2.81134C3.76562 2.81114 3.76562 2.81094 3.76562 2.81075C3.76562 2.81055 3.76562 2.81035 3.76562 2.81015C3.76562 2.80995 3.76562 2.80975 3.76562 2.80956C3.76562 2.80936 3.76562 2.80916 3.76562 2.80896C3.76562 2.80876 3.76562 2.80857 3.76562 2.80837C3.76562 2.80817 3.76562 2.80797 3.76562 2.80778C3.76562 2.80758 3.76562 2.80738 3.76562 2.80718C3.76562 2.80699 3.76562 2.80679 3.76562 2.80659C3.76562 2.80639 3.76562 2.8062 3.76562 2.806C3.76562 2.8058 3.76562 2.80561 3.76562 2.80541C3.76562 2.80521 3.76562 2.80502 3.76562 2.80482C3.76562 2.80462 3.76562 2.80443 3.76562 2.80423C3.76562 2.80403 3.76562 2.80384 3.76562 2.80364C3.76562 2.80344 3.76562 2.80325 3.76562 2.80305C3.76562 2.80286 3.76562 2.80266 3.76562 2.80246C3.76562 2.80227 3.76562 2.80207 3.76562 2.80188C3.76562 2.80168 3.76562 2.80149 3.76562 2.80129C3.76562 2.80109 3.76562 2.8009 3.76562 2.8007C3.76562 2.80051 3.76562 2.80031 3.76562 2.80012C3.76562 2.79992 3.76562 2.79973 3.76562 2.79953C3.76562 2.79934 3.76562 2.79914 3.76562 2.79895C3.76562 2.79875 3.76562 2.79856 3.76562 2.79836C3.76562 2.79817 3.76562 2.79797 3.76562 2.79778C3.76562 2.79758 3.76562 2.79739 3.76562 2.7972C3.76562 2.797 3.76562 2.79681 3.76562 2.79661C3.76562 2.79642 3.76562 2.79623 3.76562 2.79603C3.76562 2.79584 3.76562 2.79564 3.76562 2.79545C3.76562 2.79526 3.76562 2.79506 3.76562 2.79487C3.76562 2.79467 3.76562 2.79448 3.76562 2.79429C3.76562 2.79409 3.76562 2.7939 3.76562 2.79371C3.76562 2.79351 3.76562 2.79332 3.76562 2.79313C3.76562 2.79294 3.76562 2.79274 3.76562 2.79255C3.76562 2.79236 3.76562 2.79216 3.76562 2.79197C3.76562 2.79178 3.76562 2.79159 3.76562 2.79139C3.76562 2.7912 3.76562 2.79101 3.76562 2.79082C3.76562 2.79062 3.76562 2.79043 3.76562 2.79024C3.76562 2.79005 3.76562 2.78986 3.76562 2.78966C3.76562 2.78947 3.76562 2.78928 3.76562 2.78909C3.76562 2.7889 3.76562 2.7887 3.76562 2.78851C3.76562 2.78832 3.76562 2.78813 3.76562 2.78794C3.76562 2.78775 3.76562 2.78755 3.76562 2.78736C3.76562 2.78717 3.76562 2.78698 3.76562 2.78679C3.76562 2.7866 3.76562 2.78641 3.76562 2.78622C3.76562 2.78603 3.76562 2.78584 3.76562 2.78564C3.76562 2.78545 3.76562 2.78526 3.76562 2.78507C3.76562 2.78488 3.76562 2.78469 3.76562 2.7845C3.76562 2.78431 3.76562 2.78412 3.76562 2.78393C3.76562 2.78374 3.76562 2.78355 3.76562 2.78336C3.76562 2.78317 3.76562 2.78298 3.76562 2.78279C3.76562 2.7826 3.76562 2.78241 3.76562 2.78222C3.76562 2.78203 3.76562 2.78184 3.76562 2.78165C3.76562 2.78146 3.76562 2.78127 3.76562 2.78108C3.76562 2.78089 3.76562 2.78071 3.76562 2.78052C3.76562 2.78033 3.76562 2.78014 3.76562 2.77995C3.76562 2.77976 3.76562 2.77957 3.76562 2.77938C3.76562 2.77919 3.76562 2.77901 3.76562 2.77882C3.76562 2.77863 3.76562 2.77844 3.76562 2.77825C3.76562 2.77806 3.76562 2.77787 3.76562 2.77769C3.76562 2.7775 3.76562 2.77731 3.76562 2.77712C3.76562 2.77693 3.76562 2.77675 3.76562 2.77656C3.76562 2.77637 3.76562 2.77618 3.76562 2.77599C3.76562 2.77581 3.76562 2.77562 3.76562 2.77543C3.76562 2.77524 3.76562 2.77506 3.76562 2.77487C3.76562 2.77468 3.76562 2.77449 3.76562 2.77431C3.76562 2.77412 3.76562 2.77393 3.76562 2.77375C3.76562 2.77356 3.76562 2.77337 3.76562 2.77319C3.76562 2.773 3.76562 2.77281 3.76562 2.77263C3.76562 2.77244 3.76562 2.77225 3.76562 2.77207C3.76562 2.77188 3.76562 2.77169 3.76562 2.77151C3.76562 2.77132 3.76562 2.77113 3.76562 2.77095C3.76562 2.77076 3.76562 2.77058 3.76562 2.77039C3.76562 2.7702 3.76562 2.77002 3.76562 2.76983C3.76562 2.76965 3.76562 2.76946 3.76562 2.76928C3.76562 2.76909 3.76562 2.76891 3.76562 2.76872C3.76562 2.76853 3.76562 2.76835 3.76562 2.76816C3.76562 2.76798 3.76562 2.76779 3.76562 2.76761C3.76562 2.76742 3.76562 2.76724 3.76562 2.76705C3.76562 2.76687 3.76562 2.76668 3.76562 2.7665C3.76562 2.76631 3.76562 2.76613 3.76562 2.76595C3.76562 2.76576 3.76562 2.76558 3.76562 2.76539C3.76562 2.76521 3.76562 2.76502 3.76562 2.76484C3.76562 2.76466 3.76562 2.76447 3.76562 2.76429C3.76562 2.7641 3.76562 2.76392 3.76562 2.76374C3.76562 2.76355 3.76562 2.76337 3.76562 2.76319C3.76562 2.763 3.76562 2.76282 3.76562 2.76264C3.76562 2.76245 3.76562 2.76227 3.76562 2.76209C3.76562 2.7619 3.76562 2.76172 3.76562 2.76154C3.76562 2.76135 3.76562 2.76117 3.76562 2.76099C3.76562 2.7608 3.76562 2.76062 3.76562 2.76044C3.76562 2.76026 3.76562 2.76007 3.76562 2.75989C3.76562 2.75971 3.76562 2.75953 3.76562 2.75934C3.76562 2.75916 3.76562 2.75898 3.76562 2.7588C3.76562 2.75861 3.76562 2.75843 3.76562 2.75825C3.76562 2.75807 3.76562 2.75789 3.76562 2.7577C3.76562 2.75752 3.76562 2.75734 3.76562 2.75716C3.76562 2.75698 3.76562 2.7568 3.76562 2.75662C3.76562 2.75643 3.76562 2.75625 3.76562 2.75607C3.76562 2.75589 3.76562 2.75571 3.76562 2.75553C3.76562 2.75535 3.76562 2.75517 3.76562 2.75498C3.76562 2.7548 3.76562 2.75462 3.76562 2.75444C3.76562 2.75426 3.76562 2.75408 3.76562 2.7539C3.76562 2.75372 3.76562 2.75354 3.76562 2.75336C3.76562 2.75318 3.76562 2.753 3.76562 2.75282C3.76562 2.75264 3.76562 2.75246 3.76562 2.75228C3.76562 2.7521 3.76562 2.75192 3.76562 2.75174C3.76562 2.75156 3.76562 2.75138 3.76562 2.7512C3.76562 2.75102 3.76562 2.75084 3.76562 2.75066C3.76562 2.75048 3.76562 2.7503 3.76562 2.75012C3.76562 2.74994 3.76562 2.74976 3.76562 2.74958C3.76562 2.74941 3.76562 2.74923 3.76562 2.74905C3.76562 2.74887 3.76562 2.74869 3.76562 2.74851C3.76562 2.74833 3.76562 2.74815 3.76562 2.74797C3.76562 2.7478 3.76562 2.74762 3.76562 2.74744C3.76562 2.74726 3.76562 2.74708 3.76562 2.7469C3.76562 2.74673 3.76562 2.74655 3.76562 2.74637C3.76562 2.74619 3.76562 2.74601 3.76562 2.74584C3.76562 2.74566 3.76562 2.74548 3.76562 2.7453C3.76562 2.74513 3.76562 2.74495 3.76562 2.74477C3.76562 2.74459 3.76562 2.74442 3.76562 2.74424C3.76562 2.74406 3.76562 2.74388 3.76562 2.74371C3.76562 2.74353 3.76562 2.74335 3.76562 2.74318C3.76562 2.743 3.76562 2.74282 3.76562 2.74264C3.76562 2.74247 3.76562 2.74229 3.76562 2.74211C3.76562 2.74194 3.76562 2.74176 3.76562 2.74158C3.76562 2.74141 3.76562 2.74123 3.76562 2.74106C3.76562 2.74088 3.76562 2.7407 3.76562 2.74053C3.76562 2.74035 3.76562 2.74018 3.76562 2.74C3.76562 2.73982 3.76562 2.73965 3.76562 2.73947C3.76562 2.7393 3.76562 2.73912 3.76562 2.73895C3.76562 2.73877 3.76562 2.73859 3.76562 2.73842C3.76562 2.73824 3.76562 2.73807 3.76562 2.73789C3.76562 2.73772 3.76562 2.73754 3.76562 2.73737C3.76562 2.73719 3.76562 2.73702 3.76562 2.73684C3.76562 2.73667 3.76562 2.73649 3.76562 2.73632C3.76562 2.73614 3.76562 2.73597 3.76562 2.7358C3.76562 2.73562 3.76562 2.73545 3.76562 2.73527C3.76562 2.7351 3.76562 2.73492 3.76562 2.73475C3.76562 2.73458 3.76562 2.7344 3.76562 2.73423C3.76562 2.73405 3.76562 2.73388 3.76562 2.73371C3.76562 2.73353 3.76562 2.73336 3.76562 2.73318C3.76562 2.73301 3.76562 2.73284 3.76562 2.73266C3.76562 2.73249 3.76562 2.73232 3.76562 2.73214C3.76562 2.73197 3.76562 2.7318 3.76562 2.73163C3.76562 2.73145 3.76562 2.73128 3.76562 2.73111C3.76562 2.73093 3.76562 2.73076 3.76562 2.73059C3.76562 2.73042 3.76562 2.73024 3.76562 2.73007C3.76562 2.7299 3.76562 2.72973 3.76562 2.72955C3.76562 2.72938 3.76562 2.72921 3.76562 2.72904C3.76562 2.72886 3.76562 2.72869 3.76562 2.72852C3.76562 2.72835 3.76562 2.72818 3.76562 2.728C3.76562 2.72783 3.76562 2.72766 3.76562 2.72749C3.76562 2.72732 3.76562 2.72715 3.76562 2.72697C3.76562 2.7268 3.76562 2.72663 3.76562 2.72646C3.76562 2.72629 3.76562 2.72612 3.76562 2.72595C3.76562 2.72578 3.76562 2.72561 3.76562 2.72543C3.76562 2.72526 3.76562 2.72509 3.76562 2.72492C3.76562 2.72475 3.76562 2.72458 3.76562 2.72441C3.76562 2.72424 3.76562 2.72407 3.76562 2.7239C3.76562 2.72373 3.76562 2.72356 3.76562 2.72339C3.76562 2.72322 3.76562 2.72305 3.76562 2.72288C3.76562 2.72271 3.76562 2.72254 3.76562 2.72237C3.76562 2.7222 3.76562 2.72203 3.76562 2.72186C3.76562 2.72169 3.76562 2.72152 3.76562 2.72135C3.76562 2.72118 3.76562 2.72101 3.76562 2.72084C3.76562 2.72067 3.76562 2.7205 3.76562 2.72033C3.76562 2.72017 3.76562 2.72 3.76562 2.71983C3.76562 2.71966 3.76562 2.71949 3.76562 2.71932C3.76562 2.71915 3.76562 2.71898 3.76562 2.71882C3.76562 2.71865 3.76562 2.71848 3.76562 2.71831C3.76562 2.71814 3.76562 2.71797 3.76562 2.71781C3.76562 2.71764 3.76562 2.71747 3.76562 2.7173C3.76562 2.71713 3.76562 2.71696 3.76562 2.7168C3.76562 2.71663 3.76562 2.71646 3.76562 2.71629C3.76562 2.71613 3.76562 2.71596 3.76562 2.71579C3.76562 2.71562 3.76562 2.71546 3.76562 2.71529C3.76562 2.71512 3.76562 2.71495 3.76562 2.71479C3.76562 2.71462 3.76562 2.71445 3.76562 2.71429C3.76562 2.71412 3.76562 2.71395 3.76562 2.71379C3.76562 2.71362 3.76562 2.71345 3.76562 2.71329C3.76562 2.71312 3.76562 2.71295 3.76562 2.71279C3.76562 2.71262 3.76562 2.71245 3.76562 2.71229C3.76562 2.71212 3.76562 2.71195 3.76562 2.71179C3.76562 2.71162 3.76562 2.71146 3.76562 2.71129C3.76562 2.71112 3.76562 2.71096 3.76562 2.71079C3.76562 2.71063 3.76562 2.71046 3.76562 2.7103C3.76562 2.71013 3.76562 2.70997 3.76562 2.7098C3.76562 2.70963 3.76562 2.70947 3.76562 2.7093C3.76562 2.70914 3.76562 2.70897 3.76562 2.70881C3.76562 2.70864 3.76562 2.70848 3.76562 2.70831C3.76562 2.70815 3.76562 2.70798 3.76562 2.70782C3.76562 2.70766 3.76562 2.70749 3.76562 2.70733C3.76562 2.70716 3.76562 2.707 3.76562 2.70683C3.76562 2.70667 3.76562 2.7065 3.76562 2.70634C3.76562 2.70618 3.76562 2.70601 3.76562 2.70585C3.76562 2.70568 3.76562 2.70552 3.76562 2.70536C3.76562 2.70519 3.76562 2.70503 3.76562 2.70487C3.76562 2.7047 3.76562 2.70454 3.76562 2.70438C3.76562 2.70421 3.76562 2.70405 3.76562 2.70389C3.76562 2.70372 3.76562 2.70356 3.76562 2.7034C3.76562 2.70323 3.76562 2.70307 3.76562 2.70291C3.76562 2.70275 3.76562 2.70258 3.76562 2.70242C3.76562 2.70226 3.76562 2.70209 3.76562 2.70193C3.76562 2.70177 3.76562 2.70161 3.76562 2.70144C3.76562 2.70128 3.76562 2.70112 3.76562 2.70096C3.76562 2.7008 3.76562 2.70063 3.76562 2.70047C3.76562 2.70031 3.76562 2.70015 3.76562 2.69999C3.76562 2.69982 3.76562 2.69966 3.76562 2.6995C3.76562 2.69934 3.76562 2.69918 3.76562 2.69902C3.76562 2.69886 3.76562 2.69869 3.76562 2.69853C3.76562 2.69837 3.76562 2.69821 3.76562 2.69805C3.76562 2.69789 3.76562 2.69773 3.76562 2.69757C3.76562 2.69741 3.76562 2.69725 3.76562 2.69708C3.76562 2.69692 3.76562 2.69676 3.76562 2.6966C3.76562 2.69644 3.76562 2.69628 3.76562 2.69612C3.76562 2.69596 3.76562 2.6958 3.76562 2.69564C3.76562 2.69548 3.76562 2.69532 3.76562 2.69516C3.76562 2.695 3.76562 2.69484 3.76562 2.69468C3.76562 2.69452 3.76562 2.69436 3.76562 2.6942C3.76562 2.69404 3.76562 2.69388 3.76562 2.69372C3.76562 2.69356 3.76562 2.6934 3.76562 2.69324C3.76562 2.69309 3.76562 2.69293 3.76562 2.69277C3.76562 2.69261 3.76562 2.69245 3.76562 2.69229C3.76562 2.69213 3.76562 2.69197 3.76562 2.69181C3.76562 2.69166 3.76562 2.6915 3.76562 2.69134C3.76562 2.69118 3.76562 2.69102 3.76562 2.69086C3.76562 2.6907 3.76562 2.69055 3.76562 2.69039C3.76562 2.69023 3.76562 2.69007 3.76562 2.68991C3.76562 2.68976 3.76562 2.6896 3.76562 2.68944C3.76562 2.68928 3.76562 2.68912 3.76562 2.68897C3.76562 2.68881 3.76562 2.68865 3.76562 2.68849C3.76562 2.68834 3.76562 2.68818 3.76562 2.68802C3.76562 2.68786 3.76562 2.68771 3.76562 2.68755C3.76562 2.68739 3.76562 2.68724 3.76562 2.68708C3.76562 2.68692 3.76562 2.68677 3.76562 2.68661C3.76562 2.68645 3.76562 2.6863 3.76562 2.68614C3.76562 2.68598 3.76562 2.68583 3.76562 2.68567C3.76562 2.68551 3.76562 2.68536 3.76562 2.6852C3.76562 2.68504 3.76562 2.68489 3.76562 2.68473C3.76562 2.68458 3.76562 2.68442 3.76562 2.68426C3.76562 2.68411 3.76562 2.68395 3.76562 2.6838C3.76562 2.68364 3.76562 2.68349 3.76562 2.68333C3.76562 2.68317 3.76562 2.68302 3.76562 2.68286C3.76562 2.68271 3.76562 2.68255 3.76562 2.6824C3.76562 2.68224 3.76562 2.68209 3.76562 2.68193C3.76562 2.68178 3.76562 2.68162 3.76562 2.68147C3.76562 2.68131 3.76562 2.68116 3.76562 2.681C3.76562 2.68085 3.76562 2.68069 3.76562 2.68054C3.76562 2.68039 3.76562 2.68023 3.76562 2.68008C3.76562 2.67992 3.76562 2.67977 3.76562 2.67961C3.76562 2.67946 3.76562 2.67931 3.76562 2.67915C3.76562 2.679 3.76562 2.67884 3.76562 2.67869C3.76562 2.67854 3.76562 2.67838 3.76562 2.67823C3.76562 2.67808 3.76562 2.67792 3.76562 2.67777C3.76562 2.67762 3.76562 2.67746 3.76562 2.67731C3.76562 2.67716 3.76562 2.677 3.76562 2.67685C3.76562 2.6767 3.76562 2.67654 3.76562 2.67639C3.76562 2.67624 3.76562 2.67609 3.76562 2.67593C3.76562 2.67578 3.76562 2.67563 3.76562 2.67548C3.76562 2.67532 3.76562 2.67517 3.76562 2.67502C3.76562 2.67487 3.76562 2.67471 3.76562 2.67456C3.76562 2.67441 3.76562 2.67426 3.76562 2.67411C3.76562 2.67395 3.76562 2.6738 3.76562 2.67365C3.76562 2.6735 3.76562 2.67335 3.76562 2.6732C3.76562 2.67304 3.76562 2.67289 3.76562 2.67274C3.76562 2.67259 3.76562 2.67244 3.76562 2.67229C3.76562 2.67214 3.76562 2.67199 3.76562 2.67183C3.76562 2.67168 3.76562 2.67153 3.76562 2.67138C3.76562 2.67123 3.76562 2.67108 3.76562 2.67093C3.76562 2.67078 3.76562 2.67063 3.76562 2.67048C3.76562 2.67033 3.76562 2.67018 3.76562 2.67003C3.76562 2.66988 3.76562 2.66973 3.76562 2.66958C3.76562 2.66943 3.76562 2.66928 3.76562 2.66913C3.76562 2.66898 3.76562 2.66883 3.76562 2.66868C3.76562 2.66853 3.76562 2.66838 3.76562 2.66823C3.76562 2.66808 3.76562 2.66793 3.76562 2.66778C3.76562 2.66763 3.76562 2.66748 3.76562 2.66733C3.76562 2.66718 3.76562 2.66703 3.76562 2.66688C3.76562 2.66673 3.76562 2.66658 3.76562 2.66644C3.76562 2.66629 3.76562 2.66614 3.76562 2.66599C3.76562 2.66584 3.76562 2.66569 3.76562 2.66554C3.76562 2.66539 3.76562 2.66525 3.76562 2.6651C3.76562 2.66495 3.76562 2.6648 3.76562 2.66465C3.76562 2.6645 3.76562 2.66436 3.76562 2.66421C3.76562 2.66406 3.76562 2.66391 3.76562 2.66376C3.76562 2.66362 3.76562 2.66347 3.76562 2.66332C3.76562 2.66317 3.76562 2.66303 3.76562 2.66288C3.76562 2.66273 3.76562 2.66258 3.76562 2.66244C3.76562 2.66229 3.76562 2.66214 3.76562 2.662C3.76562 2.66185 3.76562 2.6617 3.76562 2.66155C3.76562 2.66141 3.76562 2.66126 3.76562 2.66111C3.76562 2.66097 3.76562 2.66082 3.76562 2.66067C3.76562 2.66053 3.76562 2.66038 3.76562 2.66023C3.76562 2.66009 3.76562 2.65994 3.76562 2.6598C3.76562 2.65965 3.76562 2.6595 3.76562 2.65936C3.76562 2.65921 3.76562 2.65907 3.76562 2.65892C3.76562 2.65877 3.76562 2.65863 3.76562 2.65848C3.76562 2.65834 3.76562 2.65819 3.76562 2.65805C3.76562 2.6579 3.76562 2.65775 3.76562 2.65761C3.76562 2.65746 3.76562 2.65732 3.76562 2.65717C3.76562 2.65703 3.76562 2.65688 3.76562 2.65674C3.76562 2.65659 3.76562 2.65645 3.76562 2.6563C3.76562 2.65616 3.76562 2.65601 3.76562 2.65587C3.76562 2.65573 3.76562 2.65558 3.76562 2.65544C3.76562 2.65529 3.76562 2.65515 3.76562 2.655C3.76562 2.65486 3.76562 2.65471 3.76562 2.65457C3.76562 2.65443 3.76562 2.65428 3.76562 2.65414C3.76562 2.65399 3.76562 2.65385 3.76562 2.65371C3.76562 2.65356 3.76562 2.65342 3.76562 2.65328C3.76562 2.65313 3.76562 2.65299 3.76562 2.65285C3.76562 2.6527 3.76562 2.65256 3.76562 2.65242C3.76562 2.65227 3.76562 2.65213 3.76562 2.65199C3.76562 2.65184 3.76562 2.6517 3.76562 2.65156C3.76562 2.65142 3.76562 2.65127 3.76562 2.65113C3.76562 2.65099 3.76562 2.65085 3.76562 2.6507C3.76562 2.65056 3.76562 2.65042 3.76562 2.65028C3.76562 2.65013 3.76562 2.64999 3.76562 2.64985C3.76562 2.64971 3.76562 2.64956 3.76562 2.64942C3.76562 2.64928 3.76562 2.64914 3.76562 2.649C3.76562 2.64886 3.76562 2.64871 3.76562 2.64857C3.76562 2.64843 3.76562 2.64829 3.76562 2.64815C3.76562 2.64801 3.76562 2.64787 3.76562 2.64772C3.76562 2.64758 3.76562 2.64744 3.76562 2.6473C3.76562 2.64716 3.76562 2.64702 3.76562 2.64688C3.76562 2.64674 3.76562 2.6466 3.76562 2.64646C3.76562 2.64632 3.76562 2.64617 3.76562 2.64603C3.76562 2.64589 3.76562 2.64575 3.76562 2.64561C3.76562 2.64547 3.76562 2.64533 3.76562 2.64519C3.76562 2.64505 3.76562 2.64491 3.76562 2.64477C3.76562 2.64463 3.76562 2.64449 3.76562 2.64435C3.76562 2.64421 3.76562 2.64407 3.76562 2.64393C3.76562 2.64379 3.76562 2.64365 3.76562 2.64351C3.76562 2.64338 3.76562 2.64324 3.76562 2.6431C3.76562 2.64296 3.76562 2.64282 3.76562 2.64268C3.76562 2.64254 3.76562 2.6424 3.76562 2.64226C3.76562 2.64212 3.76562 2.64198 3.76562 2.64185C3.76562 2.64171 3.76562 2.64157 3.76562 2.64143C3.76562 2.64129 3.76562 2.64115 3.76562 2.64102C3.76562 2.64088 3.76562 2.64074 3.76562 2.6406C3.76562 2.64046 3.76562 2.64032 3.76562 2.64019C3.76562 2.64005 3.76562 2.63991 3.76562 2.63977C3.76562 2.63963 3.76562 2.6395 3.76562 2.63936C3.76562 2.63922 3.76562 2.63908 3.76562 2.63895C3.76562 2.63881 3.76562 2.63867 3.76562 2.63853C3.76562 2.6384 3.76562 2.63826 3.76562 2.63812C3.76562 2.63799 3.76562 2.63785 3.76562 2.63771C3.76562 2.63758 3.76562 2.63744 3.76562 2.6373C3.76562 2.63716 3.76562 2.63703 3.76562 2.63689C3.76562 2.63676 3.76562 2.63662 3.76562 2.63648C3.76562 2.63635 3.76562 2.63621 3.76562 2.63607C3.76562 2.63594 3.76562 2.6358 3.76562 2.63567C3.76562 2.63553 3.76562 2.63539 3.76562 2.63526C3.76562 2.63512 3.76562 2.63499 3.76562 2.63485C3.76562 2.63471 3.76562 2.63458 3.76562 2.63444C3.76562 2.63431 3.76562 2.63417 3.76562 2.63404C3.76562 2.6339 3.76562 2.63377 3.76562 2.63363C3.76562 2.6335 3.76562 2.63336 3.76562 2.63323C3.76562 2.63309 3.76562 2.63296 3.76562 2.63282C3.76562 2.63269 3.76562 2.63255 3.76562 2.63242C3.76562 2.63228 3.76562 2.63215 3.76562 2.63201C3.76562 2.63188 3.76562 2.63175 3.76562 2.63161C3.76562 2.63148 3.76562 2.63134 3.76562 2.63121C3.76562 2.63107 3.76562 2.63094 3.76562 2.63081C3.76562 2.63067 3.76562 2.63054 3.76562 2.63041C3.76562 2.63027 3.76562 2.63014 3.76562 2.63C3.76562 2.62987 3.76562 2.62974 3.76562 2.6296C3.76562 2.62947 3.76562 2.62934 3.76562 2.6292C3.76562 2.62907 3.76562 2.62894 3.76562 2.62881C3.76562 2.62867 3.76562 2.62854 3.76562 2.62841C3.76562 2.62827 3.76562 2.62814 3.76562 2.62801C3.76562 2.62788 3.76562 2.62774 3.76562 2.62761C3.76562 2.62748 3.76562 2.62735 3.76562 2.62721C3.76562 2.62708 3.76562 2.62695 3.76562 2.62682C3.76562 2.62669 3.76562 2.62655 3.76562 2.62642C3.76562 2.62629 3.76562 2.62616 3.76562 2.62603C3.76562 2.62589 3.76562 2.62576 3.76562 2.62563C3.76562 2.6255 3.76562 2.62537 3.76562 2.62524C3.76562 2.62511 3.76562 2.62497 3.76562 2.62484C3.76562 2.62471 3.76562 2.62458 3.76562 2.62445C3.76562 2.62432 3.76562 2.62419 3.76562 2.62406C3.76562 2.62393 3.76562 2.6238 3.76562 2.62366C3.76562 2.62353 3.76562 2.6234 3.76562 2.62327C3.76562 2.62314 3.76562 2.62301 3.76562 2.62288C3.76562 2.62275 3.76562 2.62262 3.76562 2.62249C3.76562 2.62236 3.76562 2.62223 3.76562 2.6221C3.76562 2.62197 3.76562 2.62184 3.76562 2.62171C3.76562 2.62158 3.76562 2.62145 3.76562 2.62132C3.76562 2.62119 3.76562 2.62106 3.76562 2.62093C3.76562 2.6208 3.76562 2.62068 3.76562 2.62055C3.76562 2.62042 3.76562 2.62029 3.76562 2.62016C3.76562 2.62003 3.76562 2.6199 3.76562 2.61977C3.76562 2.61964 3.76562 2.61951 3.76562 2.61939C3.76562 2.61926 3.76562 2.61913 3.76562 2.619C3.76562 2.61887 3.76562 2.61874 3.76562 2.61861C3.76562 2.61849 3.76562 2.61836 3.76562 2.61823C3.76562 2.6181 3.76562 2.61797 3.76562 2.61785C3.76562 2.61772 3.76562 2.61759 3.76562 2.61746C3.76562 2.61733 3.76562 2.61721 3.76562 2.61708C3.76562 2.61695 3.76562 2.61682 3.76562 2.6167C3.76562 2.61657 3.76562 2.61644 3.76562 2.61631C3.76562 2.61619 3.76562 2.61606 3.76562 2.61593C3.76562 2.61581 3.76562 2.61568 3.76562 2.61555C3.76562 2.61543 3.76562 2.6153 3.76562 2.61517C3.76562 2.61504 3.76562 2.61492 3.76562 2.61479C3.76562 2.61467 3.76562 2.61454 3.76562 2.61441C3.76562 2.61429 3.76562 2.61416 3.76562 2.61403C3.76562 2.61391 3.76562 2.61378 3.76562 2.61366C3.76562 2.61353 3.76562 2.6134 3.76562 2.61328C3.76562 2.61315 3.76562 2.61303 3.76562 2.6129C3.76562 2.61277 3.76562 2.61265 3.76562 2.61252C3.76562 2.6124 3.76562 2.61227 3.76562 2.61215C3.76562 2.61202 3.76562 2.6119 3.76562 2.61177C3.76562 2.61165 3.76562 2.61152 3.76562 2.6114C3.76562 2.61127 3.76562 2.61115 3.76562 2.61102C3.76562 2.6109 3.76562 2.61077 3.76562 2.61065C3.76562 2.61052 3.76562 2.6104 3.76562 2.61027C3.76562 2.61015 3.76562 2.61003 3.76562 2.6099C3.76562 2.60978 3.76562 2.60965 3.76562 2.60953C3.76562 2.60941 3.76562 2.60928 3.76562 2.60916C3.76562 2.60903 3.76562 2.60891 3.76562 2.60879C3.76562 2.60866 3.76562 2.60854 3.76562 2.60842C3.76562 2.60829 3.76562 2.60817 3.76562 2.60805C3.76562 2.60792 3.76562 2.6078 3.76562 2.60768C3.76562 2.60755 3.76562 2.60743 3.76562 2.60731C3.76562 2.60718 3.76562 2.60706 3.76562 2.60694C3.76562 2.60682 3.76562 2.60669 3.76562 2.60657C3.76562 2.60645 3.76562 2.60632 3.76562 2.6062C3.76562 2.60608 3.76562 2.60596 3.76562 2.60584C3.76562 2.60571 3.76562 2.60559 3.76562 2.60547H2.26562H0.765625C0.765625 2.60559 0.765625 2.60571 0.765625 2.60584C0.765625 2.60596 0.765625 2.60608 0.765625 2.6062C0.765625 2.60632 0.765625 2.60645 0.765625 2.60657C0.765625 2.60669 0.765625 2.60682 0.765625 2.60694C0.765625 2.60706 0.765625 2.60718 0.765625 2.60731C0.765625 2.60743 0.765625 2.60755 0.765625 2.60768C0.765625 2.6078 0.765625 2.60792 0.765625 2.60805C0.765625 2.60817 0.765625 2.60829 0.765625 2.60842C0.765625 2.60854 0.765625 2.60866 0.765625 2.60879C0.765625 2.60891 0.765625 2.60903 0.765625 2.60916C0.765625 2.60928 0.765625 2.60941 0.765625 2.60953C0.765625 2.60965 0.765625 2.60978 0.765625 2.6099C0.765625 2.61003 0.765625 2.61015 0.765625 2.61027C0.765625 2.6104 0.765625 2.61052 0.765625 2.61065C0.765625 2.61077 0.765625 2.6109 0.765625 2.61102C0.765625 2.61115 0.765625 2.61127 0.765625 2.6114C0.765625 2.61152 0.765625 2.61165 0.765625 2.61177C0.765625 2.6119 0.765625 2.61202 0.765625 2.61215C0.765625 2.61227 0.765625 2.6124 0.765625 2.61252C0.765625 2.61265 0.765625 2.61277 0.765625 2.6129C0.765625 2.61303 0.765625 2.61315 0.765625 2.61328C0.765625 2.6134 0.765625 2.61353 0.765625 2.61366C0.765625 2.61378 0.765625 2.61391 0.765625 2.61403C0.765625 2.61416 0.765625 2.61429 0.765625 2.61441C0.765625 2.61454 0.765625 2.61467 0.765625 2.61479C0.765625 2.61492 0.765625 2.61504 0.765625 2.61517C0.765625 2.6153 0.765625 2.61543 0.765625 2.61555C0.765625 2.61568 0.765625 2.61581 0.765625 2.61593C0.765625 2.61606 0.765625 2.61619 0.765625 2.61631C0.765625 2.61644 0.765625 2.61657 0.765625 2.6167C0.765625 2.61682 0.765625 2.61695 0.765625 2.61708C0.765625 2.61721 0.765625 2.61733 0.765625 2.61746C0.765625 2.61759 0.765625 2.61772 0.765625 2.61785C0.765625 2.61797 0.765625 2.6181 0.765625 2.61823C0.765625 2.61836 0.765625 2.61849 0.765625 2.61861C0.765625 2.61874 0.765625 2.61887 0.765625 2.619C0.765625 2.61913 0.765625 2.61926 0.765625 2.61939C0.765625 2.61951 0.765625 2.61964 0.765625 2.61977C0.765625 2.6199 0.765625 2.62003 0.765625 2.62016C0.765625 2.62029 0.765625 2.62042 0.765625 2.62055C0.765625 2.62068 0.765625 2.6208 0.765625 2.62093C0.765625 2.62106 0.765625 2.62119 0.765625 2.62132C0.765625 2.62145 0.765625 2.62158 0.765625 2.62171C0.765625 2.62184 0.765625 2.62197 0.765625 2.6221C0.765625 2.62223 0.765625 2.62236 0.765625 2.62249C0.765625 2.62262 0.765625 2.62275 0.765625 2.62288C0.765625 2.62301 0.765625 2.62314 0.765625 2.62327C0.765625 2.6234 0.765625 2.62353 0.765625 2.62366C0.765625 2.6238 0.765625 2.62393 0.765625 2.62406C0.765625 2.62419 0.765625 2.62432 0.765625 2.62445C0.765625 2.62458 0.765625 2.62471 0.765625 2.62484C0.765625 2.62497 0.765625 2.62511 0.765625 2.62524C0.765625 2.62537 0.765625 2.6255 0.765625 2.62563C0.765625 2.62576 0.765625 2.62589 0.765625 2.62603C0.765625 2.62616 0.765625 2.62629 0.765625 2.62642C0.765625 2.62655 0.765625 2.62669 0.765625 2.62682C0.765625 2.62695 0.765625 2.62708 0.765625 2.62721C0.765625 2.62735 0.765625 2.62748 0.765625 2.62761C0.765625 2.62774 0.765625 2.62788 0.765625 2.62801C0.765625 2.62814 0.765625 2.62827 0.765625 2.62841C0.765625 2.62854 0.765625 2.62867 0.765625 2.62881C0.765625 2.62894 0.765625 2.62907 0.765625 2.6292C0.765625 2.62934 0.765625 2.62947 0.765625 2.6296C0.765625 2.62974 0.765625 2.62987 0.765625 2.63C0.765625 2.63014 0.765625 2.63027 0.765625 2.63041C0.765625 2.63054 0.765625 2.63067 0.765625 2.63081C0.765625 2.63094 0.765625 2.63107 0.765625 2.63121C0.765625 2.63134 0.765625 2.63148 0.765625 2.63161C0.765625 2.63175 0.765625 2.63188 0.765625 2.63201C0.765625 2.63215 0.765625 2.63228 0.765625 2.63242C0.765625 2.63255 0.765625 2.63269 0.765625 2.63282C0.765625 2.63296 0.765625 2.63309 0.765625 2.63323C0.765625 2.63336 0.765625 2.6335 0.765625 2.63363C0.765625 2.63377 0.765625 2.6339 0.765625 2.63404C0.765625 2.63417 0.765625 2.63431 0.765625 2.63444C0.765625 2.63458 0.765625 2.63471 0.765625 2.63485C0.765625 2.63499 0.765625 2.63512 0.765625 2.63526C0.765625 2.63539 0.765625 2.63553 0.765625 2.63567C0.765625 2.6358 0.765625 2.63594 0.765625 2.63607C0.765625 2.63621 0.765625 2.63635 0.765625 2.63648C0.765625 2.63662 0.765625 2.63676 0.765625 2.63689C0.765625 2.63703 0.765625 2.63716 0.765625 2.6373C0.765625 2.63744 0.765625 2.63758 0.765625 2.63771C0.765625 2.63785 0.765625 2.63799 0.765625 2.63812C0.765625 2.63826 0.765625 2.6384 0.765625 2.63853C0.765625 2.63867 0.765625 2.63881 0.765625 2.63895C0.765625 2.63908 0.765625 2.63922 0.765625 2.63936C0.765625 2.6395 0.765625 2.63963 0.765625 2.63977C0.765625 2.63991 0.765625 2.64005 0.765625 2.64019C0.765625 2.64032 0.765625 2.64046 0.765625 2.6406C0.765625 2.64074 0.765625 2.64088 0.765625 2.64102C0.765625 2.64115 0.765625 2.64129 0.765625 2.64143C0.765625 2.64157 0.765625 2.64171 0.765625 2.64185C0.765625 2.64198 0.765625 2.64212 0.765625 2.64226C0.765625 2.6424 0.765625 2.64254 0.765625 2.64268C0.765625 2.64282 0.765625 2.64296 0.765625 2.6431C0.765625 2.64324 0.765625 2.64338 0.765625 2.64351C0.765625 2.64365 0.765625 2.64379 0.765625 2.64393C0.765625 2.64407 0.765625 2.64421 0.765625 2.64435C0.765625 2.64449 0.765625 2.64463 0.765625 2.64477C0.765625 2.64491 0.765625 2.64505 0.765625 2.64519C0.765625 2.64533 0.765625 2.64547 0.765625 2.64561C0.765625 2.64575 0.765625 2.64589 0.765625 2.64603C0.765625 2.64617 0.765625 2.64632 0.765625 2.64646C0.765625 2.6466 0.765625 2.64674 0.765625 2.64688C0.765625 2.64702 0.765625 2.64716 0.765625 2.6473C0.765625 2.64744 0.765625 2.64758 0.765625 2.64772C0.765625 2.64787 0.765625 2.64801 0.765625 2.64815C0.765625 2.64829 0.765625 2.64843 0.765625 2.64857C0.765625 2.64871 0.765625 2.64886 0.765625 2.649C0.765625 2.64914 0.765625 2.64928 0.765625 2.64942C0.765625 2.64956 0.765625 2.64971 0.765625 2.64985C0.765625 2.64999 0.765625 2.65013 0.765625 2.65028C0.765625 2.65042 0.765625 2.65056 0.765625 2.6507C0.765625 2.65085 0.765625 2.65099 0.765625 2.65113C0.765625 2.65127 0.765625 2.65142 0.765625 2.65156C0.765625 2.6517 0.765625 2.65184 0.765625 2.65199C0.765625 2.65213 0.765625 2.65227 0.765625 2.65242C0.765625 2.65256 0.765625 2.6527 0.765625 2.65285C0.765625 2.65299 0.765625 2.65313 0.765625 2.65328C0.765625 2.65342 0.765625 2.65356 0.765625 2.65371C0.765625 2.65385 0.765625 2.65399 0.765625 2.65414C0.765625 2.65428 0.765625 2.65443 0.765625 2.65457C0.765625 2.65471 0.765625 2.65486 0.765625 2.655C0.765625 2.65515 0.765625 2.65529 0.765625 2.65544C0.765625 2.65558 0.765625 2.65573 0.765625 2.65587C0.765625 2.65601 0.765625 2.65616 0.765625 2.6563C0.765625 2.65645 0.765625 2.65659 0.765625 2.65674C0.765625 2.65688 0.765625 2.65703 0.765625 2.65717C0.765625 2.65732 0.765625 2.65746 0.765625 2.65761C0.765625 2.65775 0.765625 2.6579 0.765625 2.65805C0.765625 2.65819 0.765625 2.65834 0.765625 2.65848C0.765625 2.65863 0.765625 2.65877 0.765625 2.65892C0.765625 2.65907 0.765625 2.65921 0.765625 2.65936C0.765625 2.6595 0.765625 2.65965 0.765625 2.6598C0.765625 2.65994 0.765625 2.66009 0.765625 2.66023C0.765625 2.66038 0.765625 2.66053 0.765625 2.66067C0.765625 2.66082 0.765625 2.66097 0.765625 2.66111C0.765625 2.66126 0.765625 2.66141 0.765625 2.66155C0.765625 2.6617 0.765625 2.66185 0.765625 2.662C0.765625 2.66214 0.765625 2.66229 0.765625 2.66244C0.765625 2.66258 0.765625 2.66273 0.765625 2.66288C0.765625 2.66303 0.765625 2.66317 0.765625 2.66332C0.765625 2.66347 0.765625 2.66362 0.765625 2.66376C0.765625 2.66391 0.765625 2.66406 0.765625 2.66421C0.765625 2.66436 0.765625 2.6645 0.765625 2.66465C0.765625 2.6648 0.765625 2.66495 0.765625 2.6651C0.765625 2.66525 0.765625 2.66539 0.765625 2.66554C0.765625 2.66569 0.765625 2.66584 0.765625 2.66599C0.765625 2.66614 0.765625 2.66629 0.765625 2.66644C0.765625 2.66658 0.765625 2.66673 0.765625 2.66688C0.765625 2.66703 0.765625 2.66718 0.765625 2.66733C0.765625 2.66748 0.765625 2.66763 0.765625 2.66778C0.765625 2.66793 0.765625 2.66808 0.765625 2.66823C0.765625 2.66838 0.765625 2.66853 0.765625 2.66868C0.765625 2.66883 0.765625 2.66898 0.765625 2.66913C0.765625 2.66928 0.765625 2.66943 0.765625 2.66958C0.765625 2.66973 0.765625 2.66988 0.765625 2.67003C0.765625 2.67018 0.765625 2.67033 0.765625 2.67048C0.765625 2.67063 0.765625 2.67078 0.765625 2.67093C0.765625 2.67108 0.765625 2.67123 0.765625 2.67138C0.765625 2.67153 0.765625 2.67168 0.765625 2.67183C0.765625 2.67199 0.765625 2.67214 0.765625 2.67229C0.765625 2.67244 0.765625 2.67259 0.765625 2.67274C0.765625 2.67289 0.765625 2.67304 0.765625 2.6732C0.765625 2.67335 0.765625 2.6735 0.765625 2.67365C0.765625 2.6738 0.765625 2.67395 0.765625 2.67411C0.765625 2.67426 0.765625 2.67441 0.765625 2.67456C0.765625 2.67471 0.765625 2.67487 0.765625 2.67502C0.765625 2.67517 0.765625 2.67532 0.765625 2.67548C0.765625 2.67563 0.765625 2.67578 0.765625 2.67593C0.765625 2.67609 0.765625 2.67624 0.765625 2.67639C0.765625 2.67654 0.765625 2.6767 0.765625 2.67685C0.765625 2.677 0.765625 2.67716 0.765625 2.67731C0.765625 2.67746 0.765625 2.67762 0.765625 2.67777C0.765625 2.67792 0.765625 2.67808 0.765625 2.67823C0.765625 2.67838 0.765625 2.67854 0.765625 2.67869C0.765625 2.67884 0.765625 2.679 0.765625 2.67915C0.765625 2.67931 0.765625 2.67946 0.765625 2.67961C0.765625 2.67977 0.765625 2.67992 0.765625 2.68008C0.765625 2.68023 0.765625 2.68039 0.765625 2.68054C0.765625 2.68069 0.765625 2.68085 0.765625 2.681C0.765625 2.68116 0.765625 2.68131 0.765625 2.68147C0.765625 2.68162 0.765625 2.68178 0.765625 2.68193C0.765625 2.68209 0.765625 2.68224 0.765625 2.6824C0.765625 2.68255 0.765625 2.68271 0.765625 2.68286C0.765625 2.68302 0.765625 2.68317 0.765625 2.68333C0.765625 2.68349 0.765625 2.68364 0.765625 2.6838C0.765625 2.68395 0.765625 2.68411 0.765625 2.68426C0.765625 2.68442 0.765625 2.68458 0.765625 2.68473C0.765625 2.68489 0.765625 2.68504 0.765625 2.6852C0.765625 2.68536 0.765625 2.68551 0.765625 2.68567C0.765625 2.68583 0.765625 2.68598 0.765625 2.68614C0.765625 2.6863 0.765625 2.68645 0.765625 2.68661C0.765625 2.68677 0.765625 2.68692 0.765625 2.68708C0.765625 2.68724 0.765625 2.68739 0.765625 2.68755C0.765625 2.68771 0.765625 2.68786 0.765625 2.68802C0.765625 2.68818 0.765625 2.68834 0.765625 2.68849C0.765625 2.68865 0.765625 2.68881 0.765625 2.68897C0.765625 2.68912 0.765625 2.68928 0.765625 2.68944C0.765625 2.6896 0.765625 2.68976 0.765625 2.68991C0.765625 2.69007 0.765625 2.69023 0.765625 2.69039C0.765625 2.69055 0.765625 2.6907 0.765625 2.69086C0.765625 2.69102 0.765625 2.69118 0.765625 2.69134C0.765625 2.6915 0.765625 2.69166 0.765625 2.69181C0.765625 2.69197 0.765625 2.69213 0.765625 2.69229C0.765625 2.69245 0.765625 2.69261 0.765625 2.69277C0.765625 2.69293 0.765625 2.69309 0.765625 2.69324C0.765625 2.6934 0.765625 2.69356 0.765625 2.69372C0.765625 2.69388 0.765625 2.69404 0.765625 2.6942C0.765625 2.69436 0.765625 2.69452 0.765625 2.69468C0.765625 2.69484 0.765625 2.695 0.765625 2.69516C0.765625 2.69532 0.765625 2.69548 0.765625 2.69564C0.765625 2.6958 0.765625 2.69596 0.765625 2.69612C0.765625 2.69628 0.765625 2.69644 0.765625 2.6966C0.765625 2.69676 0.765625 2.69692 0.765625 2.69708C0.765625 2.69725 0.765625 2.69741 0.765625 2.69757C0.765625 2.69773 0.765625 2.69789 0.765625 2.69805C0.765625 2.69821 0.765625 2.69837 0.765625 2.69853C0.765625 2.69869 0.765625 2.69886 0.765625 2.69902C0.765625 2.69918 0.765625 2.69934 0.765625 2.6995C0.765625 2.69966 0.765625 2.69982 0.765625 2.69999C0.765625 2.70015 0.765625 2.70031 0.765625 2.70047C0.765625 2.70063 0.765625 2.7008 0.765625 2.70096C0.765625 2.70112 0.765625 2.70128 0.765625 2.70144C0.765625 2.70161 0.765625 2.70177 0.765625 2.70193C0.765625 2.70209 0.765625 2.70226 0.765625 2.70242C0.765625 2.70258 0.765625 2.70275 0.765625 2.70291C0.765625 2.70307 0.765625 2.70323 0.765625 2.7034C0.765625 2.70356 0.765625 2.70372 0.765625 2.70389C0.765625 2.70405 0.765625 2.70421 0.765625 2.70438C0.765625 2.70454 0.765625 2.7047 0.765625 2.70487C0.765625 2.70503 0.765625 2.70519 0.765625 2.70536C0.765625 2.70552 0.765625 2.70568 0.765625 2.70585C0.765625 2.70601 0.765625 2.70618 0.765625 2.70634C0.765625 2.7065 0.765625 2.70667 0.765625 2.70683C0.765625 2.707 0.765625 2.70716 0.765625 2.70733C0.765625 2.70749 0.765625 2.70766 0.765625 2.70782C0.765625 2.70798 0.765625 2.70815 0.765625 2.70831C0.765625 2.70848 0.765625 2.70864 0.765625 2.70881C0.765625 2.70897 0.765625 2.70914 0.765625 2.7093C0.765625 2.70947 0.765625 2.70963 0.765625 2.7098C0.765625 2.70997 0.765625 2.71013 0.765625 2.7103C0.765625 2.71046 0.765625 2.71063 0.765625 2.71079C0.765625 2.71096 0.765625 2.71112 0.765625 2.71129C0.765625 2.71146 0.765625 2.71162 0.765625 2.71179C0.765625 2.71195 0.765625 2.71212 0.765625 2.71229C0.765625 2.71245 0.765625 2.71262 0.765625 2.71279C0.765625 2.71295 0.765625 2.71312 0.765625 2.71329C0.765625 2.71345 0.765625 2.71362 0.765625 2.71379C0.765625 2.71395 0.765625 2.71412 0.765625 2.71429C0.765625 2.71445 0.765625 2.71462 0.765625 2.71479C0.765625 2.71495 0.765625 2.71512 0.765625 2.71529C0.765625 2.71546 0.765625 2.71562 0.765625 2.71579C0.765625 2.71596 0.765625 2.71613 0.765625 2.71629C0.765625 2.71646 0.765625 2.71663 0.765625 2.7168C0.765625 2.71696 0.765625 2.71713 0.765625 2.7173C0.765625 2.71747 0.765625 2.71764 0.765625 2.71781C0.765625 2.71797 0.765625 2.71814 0.765625 2.71831C0.765625 2.71848 0.765625 2.71865 0.765625 2.71882C0.765625 2.71898 0.765625 2.71915 0.765625 2.71932C0.765625 2.71949 0.765625 2.71966 0.765625 2.71983C0.765625 2.72 0.765625 2.72017 0.765625 2.72033C0.765625 2.7205 0.765625 2.72067 0.765625 2.72084C0.765625 2.72101 0.765625 2.72118 0.765625 2.72135C0.765625 2.72152 0.765625 2.72169 0.765625 2.72186C0.765625 2.72203 0.765625 2.7222 0.765625 2.72237C0.765625 2.72254 0.765625 2.72271 0.765625 2.72288C0.765625 2.72305 0.765625 2.72322 0.765625 2.72339C0.765625 2.72356 0.765625 2.72373 0.765625 2.7239C0.765625 2.72407 0.765625 2.72424 0.765625 2.72441C0.765625 2.72458 0.765625 2.72475 0.765625 2.72492C0.765625 2.72509 0.765625 2.72526 0.765625 2.72543C0.765625 2.72561 0.765625 2.72578 0.765625 2.72595C0.765625 2.72612 0.765625 2.72629 0.765625 2.72646C0.765625 2.72663 0.765625 2.7268 0.765625 2.72697C0.765625 2.72715 0.765625 2.72732 0.765625 2.72749C0.765625 2.72766 0.765625 2.72783 0.765625 2.728C0.765625 2.72818 0.765625 2.72835 0.765625 2.72852C0.765625 2.72869 0.765625 2.72886 0.765625 2.72904C0.765625 2.72921 0.765625 2.72938 0.765625 2.72955C0.765625 2.72973 0.765625 2.7299 0.765625 2.73007C0.765625 2.73024 0.765625 2.73042 0.765625 2.73059C0.765625 2.73076 0.765625 2.73093 0.765625 2.73111C0.765625 2.73128 0.765625 2.73145 0.765625 2.73163C0.765625 2.7318 0.765625 2.73197 0.765625 2.73214C0.765625 2.73232 0.765625 2.73249 0.765625 2.73266C0.765625 2.73284 0.765625 2.73301 0.765625 2.73318C0.765625 2.73336 0.765625 2.73353 0.765625 2.73371C0.765625 2.73388 0.765625 2.73405 0.765625 2.73423C0.765625 2.7344 0.765625 2.73458 0.765625 2.73475C0.765625 2.73492 0.765625 2.7351 0.765625 2.73527C0.765625 2.73545 0.765625 2.73562 0.765625 2.7358C0.765625 2.73597 0.765625 2.73614 0.765625 2.73632C0.765625 2.73649 0.765625 2.73667 0.765625 2.73684C0.765625 2.73702 0.765625 2.73719 0.765625 2.73737C0.765625 2.73754 0.765625 2.73772 0.765625 2.73789C0.765625 2.73807 0.765625 2.73824 0.765625 2.73842C0.765625 2.73859 0.765625 2.73877 0.765625 2.73895C0.765625 2.73912 0.765625 2.7393 0.765625 2.73947C0.765625 2.73965 0.765625 2.73982 0.765625 2.74C0.765625 2.74018 0.765625 2.74035 0.765625 2.74053C0.765625 2.7407 0.765625 2.74088 0.765625 2.74106C0.765625 2.74123 0.765625 2.74141 0.765625 2.74158C0.765625 2.74176 0.765625 2.74194 0.765625 2.74211C0.765625 2.74229 0.765625 2.74247 0.765625 2.74264C0.765625 2.74282 0.765625 2.743 0.765625 2.74318C0.765625 2.74335 0.765625 2.74353 0.765625 2.74371C0.765625 2.74388 0.765625 2.74406 0.765625 2.74424C0.765625 2.74442 0.765625 2.74459 0.765625 2.74477C0.765625 2.74495 0.765625 2.74513 0.765625 2.7453C0.765625 2.74548 0.765625 2.74566 0.765625 2.74584C0.765625 2.74601 0.765625 2.74619 0.765625 2.74637C0.765625 2.74655 0.765625 2.74673 0.765625 2.7469C0.765625 2.74708 0.765625 2.74726 0.765625 2.74744C0.765625 2.74762 0.765625 2.7478 0.765625 2.74797C0.765625 2.74815 0.765625 2.74833 0.765625 2.74851C0.765625 2.74869 0.765625 2.74887 0.765625 2.74905C0.765625 2.74923 0.765625 2.74941 0.765625 2.74958C0.765625 2.74976 0.765625 2.74994 0.765625 2.75012C0.765625 2.7503 0.765625 2.75048 0.765625 2.75066C0.765625 2.75084 0.765625 2.75102 0.765625 2.7512C0.765625 2.75138 0.765625 2.75156 0.765625 2.75174C0.765625 2.75192 0.765625 2.7521 0.765625 2.75228C0.765625 2.75246 0.765625 2.75264 0.765625 2.75282C0.765625 2.753 0.765625 2.75318 0.765625 2.75336C0.765625 2.75354 0.765625 2.75372 0.765625 2.7539C0.765625 2.75408 0.765625 2.75426 0.765625 2.75444C0.765625 2.75462 0.765625 2.7548 0.765625 2.75498C0.765625 2.75517 0.765625 2.75535 0.765625 2.75553C0.765625 2.75571 0.765625 2.75589 0.765625 2.75607C0.765625 2.75625 0.765625 2.75643 0.765625 2.75662C0.765625 2.7568 0.765625 2.75698 0.765625 2.75716C0.765625 2.75734 0.765625 2.75752 0.765625 2.7577C0.765625 2.75789 0.765625 2.75807 0.765625 2.75825C0.765625 2.75843 0.765625 2.75861 0.765625 2.7588C0.765625 2.75898 0.765625 2.75916 0.765625 2.75934C0.765625 2.75953 0.765625 2.75971 0.765625 2.75989C0.765625 2.76007 0.765625 2.76026 0.765625 2.76044C0.765625 2.76062 0.765625 2.7608 0.765625 2.76099C0.765625 2.76117 0.765625 2.76135 0.765625 2.76154C0.765625 2.76172 0.765625 2.7619 0.765625 2.76209C0.765625 2.76227 0.765625 2.76245 0.765625 2.76264C0.765625 2.76282 0.765625 2.763 0.765625 2.76319C0.765625 2.76337 0.765625 2.76355 0.765625 2.76374C0.765625 2.76392 0.765625 2.7641 0.765625 2.76429C0.765625 2.76447 0.765625 2.76466 0.765625 2.76484C0.765625 2.76502 0.765625 2.76521 0.765625 2.76539C0.765625 2.76558 0.765625 2.76576 0.765625 2.76595C0.765625 2.76613 0.765625 2.76631 0.765625 2.7665C0.765625 2.76668 0.765625 2.76687 0.765625 2.76705C0.765625 2.76724 0.765625 2.76742 0.765625 2.76761C0.765625 2.76779 0.765625 2.76798 0.765625 2.76816C0.765625 2.76835 0.765625 2.76853 0.765625 2.76872C0.765625 2.76891 0.765625 2.76909 0.765625 2.76928C0.765625 2.76946 0.765625 2.76965 0.765625 2.76983C0.765625 2.77002 0.765625 2.7702 0.765625 2.77039C0.765625 2.77058 0.765625 2.77076 0.765625 2.77095C0.765625 2.77113 0.765625 2.77132 0.765625 2.77151C0.765625 2.77169 0.765625 2.77188 0.765625 2.77207C0.765625 2.77225 0.765625 2.77244 0.765625 2.77263C0.765625 2.77281 0.765625 2.773 0.765625 2.77319C0.765625 2.77337 0.765625 2.77356 0.765625 2.77375C0.765625 2.77393 0.765625 2.77412 0.765625 2.77431C0.765625 2.77449 0.765625 2.77468 0.765625 2.77487C0.765625 2.77506 0.765625 2.77524 0.765625 2.77543C0.765625 2.77562 0.765625 2.77581 0.765625 2.77599C0.765625 2.77618 0.765625 2.77637 0.765625 2.77656C0.765625 2.77675 0.765625 2.77693 0.765625 2.77712C0.765625 2.77731 0.765625 2.7775 0.765625 2.77769C0.765625 2.77787 0.765625 2.77806 0.765625 2.77825C0.765625 2.77844 0.765625 2.77863 0.765625 2.77882C0.765625 2.77901 0.765625 2.77919 0.765625 2.77938C0.765625 2.77957 0.765625 2.77976 0.765625 2.77995C0.765625 2.78014 0.765625 2.78033 0.765625 2.78052C0.765625 2.78071 0.765625 2.78089 0.765625 2.78108C0.765625 2.78127 0.765625 2.78146 0.765625 2.78165C0.765625 2.78184 0.765625 2.78203 0.765625 2.78222C0.765625 2.78241 0.765625 2.7826 0.765625 2.78279C0.765625 2.78298 0.765625 2.78317 0.765625 2.78336C0.765625 2.78355 0.765625 2.78374 0.765625 2.78393C0.765625 2.78412 0.765625 2.78431 0.765625 2.7845C0.765625 2.78469 0.765625 2.78488 0.765625 2.78507C0.765625 2.78526 0.765625 2.78545 0.765625 2.78564C0.765625 2.78584 0.765625 2.78603 0.765625 2.78622C0.765625 2.78641 0.765625 2.7866 0.765625 2.78679C0.765625 2.78698 0.765625 2.78717 0.765625 2.78736C0.765625 2.78755 0.765625 2.78775 0.765625 2.78794C0.765625 2.78813 0.765625 2.78832 0.765625 2.78851C0.765625 2.7887 0.765625 2.7889 0.765625 2.78909C0.765625 2.78928 0.765625 2.78947 0.765625 2.78966C0.765625 2.78986 0.765625 2.79005 0.765625 2.79024C0.765625 2.79043 0.765625 2.79062 0.765625 2.79082C0.765625 2.79101 0.765625 2.7912 0.765625 2.79139C0.765625 2.79159 0.765625 2.79178 0.765625 2.79197C0.765625 2.79216 0.765625 2.79236 0.765625 2.79255C0.765625 2.79274 0.765625 2.79294 0.765625 2.79313C0.765625 2.79332 0.765625 2.79351 0.765625 2.79371C0.765625 2.7939 0.765625 2.79409 0.765625 2.79429C0.765625 2.79448 0.765625 2.79467 0.765625 2.79487C0.765625 2.79506 0.765625 2.79526 0.765625 2.79545C0.765625 2.79564 0.765625 2.79584 0.765625 2.79603C0.765625 2.79623 0.765625 2.79642 0.765625 2.79661C0.765625 2.79681 0.765625 2.797 0.765625 2.7972C0.765625 2.79739 0.765625 2.79758 0.765625 2.79778C0.765625 2.79797 0.765625 2.79817 0.765625 2.79836C0.765625 2.79856 0.765625 2.79875 0.765625 2.79895C0.765625 2.79914 0.765625 2.79934 0.765625 2.79953C0.765625 2.79973 0.765625 2.79992 0.765625 2.80012C0.765625 2.80031 0.765625 2.80051 0.765625 2.8007C0.765625 2.8009 0.765625 2.80109 0.765625 2.80129C0.765625 2.80149 0.765625 2.80168 0.765625 2.80188C0.765625 2.80207 0.765625 2.80227 0.765625 2.80246C0.765625 2.80266 0.765625 2.80286 0.765625 2.80305C0.765625 2.80325 0.765625 2.80344 0.765625 2.80364C0.765625 2.80384 0.765625 2.80403 0.765625 2.80423C0.765625 2.80443 0.765625 2.80462 0.765625 2.80482C0.765625 2.80502 0.765625 2.80521 0.765625 2.80541C0.765625 2.80561 0.765625 2.8058 0.765625 2.806C0.765625 2.8062 0.765625 2.80639 0.765625 2.80659C0.765625 2.80679 0.765625 2.80699 0.765625 2.80718C0.765625 2.80738 0.765625 2.80758 0.765625 2.80778C0.765625 2.80797 0.765625 2.80817 0.765625 2.80837C0.765625 2.80857 0.765625 2.80876 0.765625 2.80896C0.765625 2.80916 0.765625 2.80936 0.765625 2.80956C0.765625 2.80975 0.765625 2.80995 0.765625 2.81015C0.765625 2.81035 0.765625 2.81055 0.765625 2.81075C0.765625 2.81094 0.765625 2.81114 0.765625 2.81134C0.765625 2.81154 0.765625 2.81174 0.765625 2.81194C0.765625 2.81214 0.765625 2.81233 0.765625 2.81253C0.765625 2.81273 0.765625 2.81293 0.765625 2.81313C0.765625 2.81333 0.765625 2.81353 0.765625 2.81373C0.765625 2.81393 0.765625 2.81413 0.765625 2.81433C0.765625 2.81453 0.765625 2.81473 0.765625 2.81493C0.765625 2.81512 0.765625 2.81532 0.765625 2.81552C0.765625 2.81572 0.765625 2.81592 0.765625 2.81612C0.765625 2.81632 0.765625 2.81652 0.765625 2.81672C0.765625 2.81693 0.765625 2.81713 0.765625 2.81733C0.765625 2.81753 0.765625 2.81773 0.765625 2.81793C0.765625 2.81813 0.765625 2.81833 0.765625 2.81853C0.765625 2.81873 0.765625 2.81893 0.765625 2.81913C0.765625 2.81933 0.765625 2.81953 0.765625 2.81973C0.765625 2.81994 0.765625 2.82014 0.765625 2.82034C0.765625 2.82054 0.765625 2.82074 0.765625 2.82094C0.765625 2.82114 0.765625 2.82135 0.765625 2.82155C0.765625 2.82175 0.765625 2.82195 0.765625 2.82215C0.765625 2.82235 0.765625 2.82256 0.765625 2.82276C0.765625 2.82296 0.765625 2.82316 0.765625 2.82336C0.765625 2.82357 0.765625 2.82377 0.765625 2.82397C0.765625 2.82417 0.765625 2.82438 0.765625 2.82458C0.765625 2.82478 0.765625 2.82498 0.765625 2.82519C0.765625 2.82539 0.765625 2.82559 0.765625 2.82579C0.765625 2.826 0.765625 2.8262 0.765625 2.8264C0.765625 2.82661 0.765625 2.82681 0.765625 2.82701C0.765625 2.82722 0.765625 2.82742 0.765625 2.82762C0.765625 2.82783 0.765625 2.82803 0.765625 2.82823C0.765625 2.82844 0.765625 2.82864 0.765625 2.82884C0.765625 2.82905 0.765625 2.82925 0.765625 2.82946C0.765625 2.82966 0.765625 2.82986 0.765625 2.83007C0.765625 2.83027 0.765625 2.83048 0.765625 2.83068C0.765625 2.83089 0.765625 2.83109 0.765625 2.83129C0.765625 2.8315 0.765625 2.8317 0.765625 2.83191C0.765625 2.83211 0.765625 2.83232 0.765625 2.83252C0.765625 2.83273 0.765625 2.83293 0.765625 2.83314C0.765625 2.83334 0.765625 2.83355 0.765625 2.83375C0.765625 2.83396 0.765625 2.83416 0.765625 2.83437C0.765625 2.83457 0.765625 2.83478 0.765625 2.83499C0.765625 2.83519 0.765625 2.8354 0.765625 2.8356C0.765625 2.83581 0.765625 2.83601 0.765625 2.83622C0.765625 2.83643 0.765625 2.83663 0.765625 2.83684C0.765625 2.83704 0.765625 2.83725 0.765625 2.83746C0.765625 2.83766 0.765625 2.83787 0.765625 2.83808C0.765625 2.83828 0.765625 2.83849 0.765625 2.8387C0.765625 2.8389 0.765625 2.83911 0.765625 2.83932C0.765625 2.83952 0.765625 2.83973 0.765625 2.83994C0.765625 2.84014 0.765625 2.84035 0.765625 2.84056C0.765625 2.84076 0.765625 2.84097 0.765625 2.84118C0.765625 2.84139 0.765625 2.84159 0.765625 2.8418C0.765625 2.84201 0.765625 2.84222 0.765625 2.84242C0.765625 2.84263 0.765625 2.84284 0.765625 2.84305C0.765625 2.84326 0.765625 2.84346 0.765625 2.84367C0.765625 2.84388 0.765625 2.84409 0.765625 2.8443C0.765625 2.8445 0.765625 2.84471 0.765625 2.84492C0.765625 2.84513 0.765625 2.84534 0.765625 2.84555C0.765625 2.84576 0.765625 2.84596 0.765625 2.84617C0.765625 2.84638 0.765625 2.84659 0.765625 2.8468C0.765625 2.84701 0.765625 2.84722 0.765625 2.84743C0.765625 2.84764 0.765625 2.84785 0.765625 2.84805C0.765625 2.84826 0.765625 2.84847 0.765625 2.84868C0.765625 2.84889 0.765625 2.8491 0.765625 2.84931C0.765625 2.84952 0.765625 2.84973 0.765625 2.84994C0.765625 2.85015 0.765625 2.85036 0.765625 2.85057C0.765625 2.85078 0.765625 2.85099 0.765625 2.8512C0.765625 2.85141 0.765625 2.85162 0.765625 2.85183C0.765625 2.85204 0.765625 2.85225 0.765625 2.85246C0.765625 2.85267 0.765625 2.85289 0.765625 2.8531C0.765625 2.85331 0.765625 2.85352 0.765625 2.85373C0.765625 2.85394 0.765625 2.85415 0.765625 2.85436C0.765625 2.85457 0.765625 2.85478 0.765625 2.855C0.765625 2.85521 0.765625 2.85542 0.765625 2.85563C0.765625 2.85584 0.765625 2.85605 0.765625 2.85626C0.765625 2.85648 0.765625 2.85669 0.765625 2.8569C0.765625 2.85711 0.765625 2.85732 0.765625 2.85754C0.765625 2.85775 0.765625 2.85796 0.765625 2.85817C0.765625 2.85838 0.765625 2.8586 0.765625 2.85881C0.765625 2.85902 0.765625 2.85923 0.765625 2.85945C0.765625 2.85966 0.765625 2.85987 0.765625 2.86008C0.765625 2.8603 0.765625 2.86051 0.765625 2.86072C0.765625 2.86093 0.765625 2.86115 0.765625 2.86136C0.765625 2.86157 0.765625 2.86179 0.765625 2.862C0.765625 2.86221 0.765625 2.86243 0.765625 2.86264C0.765625 2.86285 0.765625 2.86307 0.765625 2.86328H2.26562ZM2.26562 2.60547H3.76562C3.76562 2.64096 3.76029 2.67018 3.75479 2.68943L2.3125 2.27734L0.870214 1.86526C0.802214 2.10326 0.765625 2.35123 0.765625 2.60547H2.26562ZM2.3125 2.27734L3.75479 2.68943C3.76187 2.66462 3.76442 2.65909 3.76111 2.66778C3.75924 2.67268 3.75469 2.68426 3.74702 2.70103C3.73951 2.71747 3.72701 2.74327 3.70861 2.77546L2.40625 2.03125L1.10389 1.28704C0.983081 1.49845 0.912602 1.71691 0.870214 1.86526L2.3125 2.27734ZM2.40625 2.03125V3.53125H8.23047V2.03125V0.53125H2.40625V2.03125ZM8.23047 2.03125L6.74099 2.20857L6.85817 3.19294L8.34766 3.01562L9.83714 2.83831L9.71995 1.85393L8.23047 2.03125ZM8.34766 3.01562L7.83819 1.60479C7.65014 1.6727 7.40307 1.73984 7.08685 1.79913L7.36328 3.27344L7.63971 4.74775C8.07349 4.66641 8.48267 4.56168 8.85712 4.42646L8.34766 3.01562ZM7.36328 3.27344L7.08685 1.79913C6.73782 1.86457 6.42219 1.91396 6.13873 1.94853L6.32031 3.4375L6.50189 4.92647C6.85906 4.88291 7.23874 4.82293 7.63971 4.74775L7.36328 3.27344ZM6.32031 3.4375H4.82031V17.5703H6.32031H7.82031V3.4375H6.32031ZM6.32031 17.5703L6.05059 19.0459L8.23028 19.4443L8.5 17.9688L8.76972 16.4932L6.59004 16.0948L6.32031 17.5703ZM8.5 17.9688L7.10728 18.5258C7.05461 18.3942 7.03718 18.2885 7.03074 18.2402C7.02361 18.1868 7.02344 18.1521 7.02344 18.1445H8.52344H10.0234C10.0234 18.0106 10.0163 17.7206 9.89272 17.4117L8.5 17.9688ZM8.52344 18.1445L7.03261 18.3102C7.03419 18.3244 7.03488 18.3334 7.03515 18.3377C7.03543 18.3422 7.03516 18.34 7.03516 18.332H8.53516H10.0352C10.0352 18.2087 10.0265 18.0892 10.0143 17.9789L8.52344 18.1445ZM8.53516 18.332H7.03516C7.03516 18.316 7.03625 18.3119 7.03502 18.3218C7.03382 18.3314 7.03081 18.351 7.024 18.3816L8.48828 18.707L9.95256 19.0324C10.0005 18.8165 10.0352 18.579 10.0352 18.332H8.53516ZM8.48828 18.707L7.024 18.3816C7.01464 18.4238 7.01023 18.4365 7.01277 18.4286C7.01429 18.4238 7.01979 18.407 7.03022 18.3816C7.04003 18.3577 7.05973 18.3126 7.09217 18.2558L8.39453 19L9.6969 19.7442C9.85059 19.4752 9.9197 19.1803 9.95256 19.0324L8.48828 18.707ZM8.39453 19V17.5H2.21875V19V20.5H8.39453V19ZM2.21875 19L3.71131 18.8507L3.60584 17.7961L2.11328 17.9453L0.620725 18.0946L0.726194 19.1493L2.21875 19Z" fill="#6D3C2E" mask="url(#path-1-outside-1_3014_106)"/>
</svg>
