<svg width="45" height="46" viewBox="0 0 45 46" fill="none" xmlns="http://www.w3.org/2000/svg">
<path d="M22.6546 3.23746V42.9488" stroke="#020202" stroke-width="3.17691" stroke-linecap="round"/>
<path d="M22.4277 5.62015C25.3433 5.62015 28.3278 5.81737 30.2858 6.07235C31.6892 6.25515 32.7422 7.23446 33.0142 8.62341C33.1898 9.52184 33.3201 10.6382 33.3201 11.974C33.3201 13.3097 33.1898 14.426 33.0142 15.3243C32.7422 16.7133 31.6892 17.6926 30.2857 17.8753C28.3278 18.1303 25.3433 18.3275 22.4277 18.3276C19.5121 18.3277 16.5276 18.1305 14.5696 17.8755C13.1661 17.6927 12.1132 16.7134 11.8413 15.3244C11.6655 14.426 11.5354 13.3096 11.5354 11.9739C11.5354 10.6381 11.6655 9.52174 11.8413 8.62331C12.1132 7.23434 13.1661 6.25505 14.5696 6.07229C16.5276 5.81731 19.5121 5.62015 22.4277 5.62015Z" fill="#94CEC4" stroke="#020202" stroke-width="3.17691"/>
<path d="M22.4276 27.8585C27.9793 27.8585 33.6174 28.1059 36.6189 28.4049C38.0276 28.5451 39.096 29.4728 39.3679 30.8618C39.5436 31.7602 39.6738 32.8764 39.6738 34.2123C39.6738 35.5479 39.5436 36.6643 39.3679 37.5627C39.096 38.9516 38.0276 39.8793 36.6189 40.0197C33.6174 40.3187 27.9793 40.5658 22.4276 40.5658C16.8759 40.5658 11.2378 40.3187 8.23615 40.0197C6.82779 39.8796 5.75937 38.9516 5.48745 37.5627C5.31158 36.6643 5.18152 35.5479 5.18152 34.2123C5.18152 32.8764 5.31158 31.7601 5.48745 30.8617C5.75937 29.4727 6.82779 28.545 8.23615 28.4048C11.2378 28.1059 16.8759 27.8585 22.4276 27.8585Z" fill="#94CEC4" stroke="#020202" stroke-width="3.17691"/>
</svg>
