<svg width="45" height="45" viewBox="0 0 45 45" fill="none" xmlns="http://www.w3.org/2000/svg">
<path d="M3.0494 32.6221C3.53907 37.1991 7.22015 40.8802 11.7948 41.3901C15.1926 41.7688 18.6814 42.0941 22.2384 42.0941C25.7953 42.0941 29.2841 41.7688 32.6818 41.3901C37.2566 40.8802 40.9376 37.1991 41.4272 32.6221C41.7887 29.2435 42.094 25.7748 42.094 22.2384C42.094 18.702 41.7887 15.2333 41.4272 11.8546C40.9376 7.27777 37.2566 3.59665 32.6818 3.08675C29.2841 2.70801 25.7953 2.38272 22.2384 2.38272C18.6814 2.38272 15.1926 2.70801 11.7948 3.08675C7.22015 3.59665 3.53907 7.27777 3.0494 11.8546C2.68792 15.2333 2.38268 18.702 2.38268 22.2384C2.38268 25.7748 2.68793 29.2435 3.0494 32.6221Z" fill="#22C55E" stroke="#22C55E" stroke-width="3.17691"/>
<path d="M3.04942 32.6221C3.53909 37.1991 7.22017 40.8802 11.7948 41.3901C15.1927 41.7688 18.6814 42.0941 22.2384 42.0941C25.7953 42.0941 29.2841 41.7688 32.6818 41.3901C37.2566 40.8802 40.9377 37.1991 41.4272 32.6221C41.7887 29.2435 42.094 25.7748 42.094 22.2384C42.094 18.702 41.7887 15.2333 41.4272 11.8546C40.9377 7.27777 37.2566 3.59665 32.6818 3.08675C29.2841 2.70801 25.7953 2.38272 22.2384 2.38272C18.6814 2.38272 15.1927 2.70801 11.7948 3.08675C7.22017 3.59665 3.53909 7.27777 3.04942 11.8546C2.68794 15.2333 2.38269 18.702 2.38269 22.2384C2.38269 25.7748 2.68794 29.2435 3.04942 32.6221Z" fill="#EF4444"/>
<path d="M3.04942 32.6221C3.53909 37.1991 7.22017 40.8802 11.7948 41.3901C15.1927 41.7688 18.6814 42.0941 22.2384 42.0941C25.7953 42.0941 29.2841 41.7688 32.6818 41.3901C37.2566 40.8802 40.9377 37.1991 41.4272 32.6221C41.7887 29.2435 42.094 25.7748 42.094 22.2384C42.094 18.702 41.7887 15.2333 41.4272 11.8546C40.9377 7.27777 37.2566 3.59665 32.6818 3.08675C29.2841 2.70801 25.7953 2.38272 22.2384 2.38272C18.6814 2.38272 15.1927 2.70801 11.7948 3.08675C7.22017 3.59665 3.53909 7.27777 3.04942 11.8546C2.68794 15.2333 2.38269 18.702 2.38269 22.2384C2.38269 25.7748 2.68794 29.2435 3.04942 32.6221Z" fill="#EF4444"/>
<path d="M3.04942 32.6221C3.53909 37.1991 7.22017 40.8802 11.7948 41.3901C15.1927 41.7688 18.6814 42.0941 22.2384 42.0941C25.7953 42.0941 29.2841 41.7688 32.6818 41.3901C37.2566 40.8802 40.9377 37.1991 41.4272 32.6221C41.7887 29.2435 42.094 25.7748 42.094 22.2384C42.094 18.702 41.7887 15.2333 41.4272 11.8546C40.9377 7.27777 37.2566 3.59665 32.6818 3.08675C29.2841 2.70801 25.7953 2.38272 22.2384 2.38272C18.6814 2.38272 15.1927 2.70801 11.7948 3.08675C7.22017 3.59665 3.53909 7.27777 3.04942 11.8546C2.68794 15.2333 2.38269 18.702 2.38269 22.2384C2.38269 25.7748 2.68794 29.2435 3.04942 32.6221Z" stroke="#EF4444" stroke-width="3.17691"/>
<path d="M15.0001 15L29 28.9999" stroke="#FDFDFD" stroke-width="3.17691" stroke-linecap="round" stroke-linejoin="round"/>
<path d="M15 29.0001L28.9999 15.0002" stroke="#FDFDFD" stroke-width="3.17691" stroke-linecap="round" stroke-linejoin="round"/>
</svg>
