<svg width="46" height="46" viewBox="0 0 46 46" fill="none" xmlns="http://www.w3.org/2000/svg">
<path d="M19.0682 6.84183C20.5014 3.37249 25.3045 3.26002 26.7447 6.72647C27.7419 9.12663 28.5027 11.5982 29.2691 14.8276C32.6556 14.793 35.3029 14.8663 37.9747 15.1064C41.7311 15.4439 43.2471 20.0116 40.3227 22.3933C38.6698 23.7395 36.8948 24.9846 34.6701 26.381C34.0439 26.774 33.7621 27.5429 33.9892 28.2466C35.0275 31.466 35.7286 34.0791 36.2741 36.8208C37 40.4666 33.1591 43.2483 30.0375 41.2294C27.6441 39.6819 25.47 37.9003 22.7942 35.3588C20.1426 37.7999 17.9791 39.532 15.6132 41.0699C12.4736 43.1114 8.55012 40.3596 9.27903 36.6861C9.80589 34.0311 10.5083 31.4487 11.5773 28.2617C11.8155 27.5516 11.5337 26.7691 10.8982 26.3727C8.60581 24.9428 6.78522 23.669 5.07712 22.2652C2.19989 19.9006 3.66874 15.3936 7.37717 15.0509C10.0912 14.8001 12.8012 14.7469 16.3193 14.8276C17.2456 11.6766 18.0773 9.24049 19.0682 6.84183Z" fill="#94CEC4" stroke="#020202" stroke-width="3.17691" stroke-linejoin="round"/>
</svg>
